<?xml version="1.0" standalone="no"?>
<!DOCTYPE svg PUBLIC "-//W3C//DTD SVG 1.1//EN" "http://www.w3.org/Graphics/SVG/1.1/DTD/svg11.dtd" >
<svg xmlns="http://www.w3.org/2000/svg">
<metadata>Generated by IcoMoon</metadata>
<defs>
<font id="buykorea" horiz-adv-x="1024">
<font-face units-per-em="1024" ascent="960" descent="-64" />
<missing-glyph horiz-adv-x="1024" />
<glyph unicode="&#x20;" horiz-adv-x="512" d="" />
<glyph unicode="&#xe900;" glyph-name="account" d="M249.6 230.4c36.267 27.733 76.8 49.609 121.6 65.621 44.8 15.987 91.733 23.979 140.8 23.979s96-7.991 140.8-23.979c44.8-16.013 85.333-37.888 121.6-65.621 24.887 29.154 44.275 62.221 58.155 99.2 13.854 36.979 20.779 76.446 20.779 118.4 0 94.578-33.237 175.118-99.712 241.621-66.505 66.475-147.042 99.712-241.621 99.712s-175.104-33.237-241.579-99.712c-66.503-66.503-99.755-147.043-99.755-241.621 0-41.954 6.941-81.421 20.821-118.4 13.853-36.979 33.223-70.046 58.112-99.2zM512 405.333c-41.954 0-77.342 14.391-106.155 43.179-28.786 28.813-43.179 64.201-43.179 106.155s14.393 77.341 43.179 106.155c28.813 28.786 64.201 43.179 106.155 43.179s77.342-14.393 106.155-43.179c28.787-28.814 43.179-64.199 43.179-106.155 0-41.954-14.391-77.342-43.179-106.155-28.813-28.787-64.201-43.179-106.155-43.179zM512 21.333c-59.021 0-114.489 11.209-166.4 33.621-51.911 22.387-97.067 52.779-135.467 91.179s-68.793 83.554-91.179 135.467c-22.414 51.913-33.621 107.379-33.621 166.4s11.207 114.489 33.621 166.4c22.386 51.911 52.779 97.067 91.179 135.467s83.555 68.807 135.467 91.221c51.911 22.386 107.379 33.579 166.4 33.579s114.487-11.193 166.4-33.579c51.913-22.414 97.067-52.821 135.467-91.221s68.791-83.555 91.179-135.467c22.413-51.911 33.621-107.379 33.621-166.4s-11.209-114.487-33.621-166.4c-22.387-51.913-52.779-97.067-91.179-135.467s-83.554-68.791-135.467-91.179c-51.913-22.413-107.379-33.621-166.4-33.621zM512 106.667c37.687 0 73.246 5.504 106.667 16.512 33.421 11.038 64 26.867 91.733 47.488-27.733 20.621-58.313 36.45-91.733 47.488-33.421 11.008-68.979 16.512-106.667 16.512s-73.246-5.504-106.667-16.512c-33.422-11.038-64-26.867-91.733-47.488 27.733-20.621 58.311-36.45 91.733-47.488 33.421-11.008 68.979-16.512 106.667-16.512zM512 490.667c18.487 0 33.779 6.046 45.867 18.133s18.133 27.378 18.133 45.867c0 18.489-6.046 33.778-18.133 45.867s-27.379 18.133-45.867 18.133c-18.487 0-33.779-6.045-45.867-18.133s-18.133-27.378-18.133-45.867c0-18.489 6.046-33.779 18.133-45.867s27.379-18.133 45.867-18.133z" />
<glyph unicode="&#xe901;" glyph-name="plus" d="M473.6 192v217.6h-217.6v76.8h217.6v217.6h76.8v-217.6h217.6v-76.8h-217.6v-217.6h-76.8z" />
<glyph unicode="&#xe902;" glyph-name="arrow-left-o-f" d="M512 292.267l44.8 44.8-78.933 78.933h194.133v64h-194.133l78.933 78.933-44.8 44.8-155.733-155.733 155.733-155.733zM512 21.333c-58.313 0-113.422 11.2-165.333 33.6s-97.245 52.979-136 91.733c-38.755 38.754-69.333 84.087-91.733 136s-33.6 107.021-33.6 165.333c0 59.021 11.2 114.489 33.6 166.4s52.978 97.067 91.733 135.467c38.755 38.4 84.089 68.8 136 91.2s107.021 33.6 165.333 33.6c59.021 0 114.487-11.2 166.4-33.6s97.067-52.8 135.467-91.2c38.4-38.4 68.8-83.555 91.2-135.467s33.6-107.379 33.6-166.4c0-58.313-11.2-113.421-33.6-165.333s-52.8-97.246-91.2-136c-38.4-38.754-83.554-69.333-135.467-91.733s-107.379-33.6-166.4-33.6z" />
<glyph unicode="&#xe903;" glyph-name="arrow-right-o-f" d="M512 292.267l155.733 155.733-155.733 155.733-44.8-44.8 78.933-78.933h-194.133v-64h194.133l-78.933-78.933 44.8-44.8zM512 21.333c-58.313 0-113.422 11.2-165.333 33.6s-97.245 52.979-136 91.733c-38.755 38.754-69.333 84.087-91.733 136s-33.6 107.021-33.6 165.333c0 59.021 11.2 114.489 33.6 166.4s52.978 97.067 91.733 135.467c38.755 38.4 84.089 68.8 136 91.2s107.021 33.6 165.333 33.6c59.021 0 114.487-11.2 166.4-33.6s97.067-52.8 135.467-91.2c38.4-38.4 68.8-83.555 91.2-135.467s33.6-107.379 33.6-166.4c0-58.313-11.2-113.421-33.6-165.333s-52.8-97.246-91.2-136c-38.4-38.754-83.554-69.333-135.467-91.733s-107.379-33.6-166.4-33.6z" />
<glyph unicode="&#xe904;" glyph-name="arrow-up-o" d="M480 290.133h64v194.133l78.933-78.933 44.8 44.8-155.733 155.733-155.733-155.733 44.8-44.8 78.933 78.933v-194.133zM512 21.333c-58.313 0-113.422 11.2-165.333 33.6s-97.245 52.979-136 91.733c-38.755 38.754-69.333 84.087-91.733 136s-33.6 107.021-33.6 165.333c0 59.021 11.2 114.489 33.6 166.4s52.978 97.067 91.733 135.467c38.755 38.4 84.089 68.8 136 91.2s107.021 33.6 165.333 33.6c59.021 0 114.487-11.2 166.4-33.6s97.067-52.8 135.467-91.2c38.4-38.4 68.8-83.555 91.2-135.467s33.6-107.379 33.6-166.4c0-58.313-11.2-113.421-33.6-165.333s-52.8-97.246-91.2-136c-38.4-38.754-83.554-69.333-135.467-91.733s-107.379-33.6-166.4-33.6zM512 85.333c100.979 0 186.667 35.379 257.067 106.133s105.6 156.267 105.6 256.533c0 100.978-35.2 186.667-105.6 257.067s-156.087 105.6-257.067 105.6c-100.267 0-185.778-35.2-256.533-105.6s-106.133-156.089-106.133-257.067c0-100.267 35.378-185.779 106.133-256.533s156.267-106.133 256.533-106.133z" />
<glyph unicode="&#xe905;" glyph-name="drop-down" d="M512 341.867l-213.333 212.267h426.667l-213.333-212.267z" />
<glyph unicode="&#xe906;" glyph-name="drop-up" d="M298.667 340.8l213.333 214.4 213.333-214.4h-426.667z" />
<glyph unicode="&#xe907;" glyph-name="calendar" d="M341.333 192.001c-12.089 0-22.229 4.096-30.421 12.288-8.163 8.162-12.245 18.291-12.245 30.379s4.082 22.217 12.245 30.379c8.192 8.192 18.333 12.288 30.421 12.288s22.229-4.096 30.421-12.288c8.163-8.162 12.245-18.291 12.245-30.379s-4.082-22.217-12.245-30.379c-8.192-8.192-18.333-12.288-30.421-12.288zM341.333 362.668c-12.089 0-22.229 4.096-30.421 12.288-8.163 8.162-12.245 18.291-12.245 30.379s4.082 22.229 12.245 30.421c8.192 8.162 18.333 12.245 30.421 12.245s22.229-4.083 30.421-12.245c8.163-8.192 12.245-18.334 12.245-30.421s-4.082-22.217-12.245-30.379c-8.192-8.192-18.333-12.288-30.421-12.288zM512 192.001c-12.087 0-22.217 4.096-30.379 12.288-8.192 8.162-12.288 18.291-12.288 30.379s4.096 22.217 12.288 30.379c8.162 8.192 18.291 12.288 30.379 12.288s22.229-4.096 30.421-12.288c8.162-8.162 12.245-18.291 12.245-30.379s-4.083-22.217-12.245-30.379c-8.192-8.192-18.334-12.288-30.421-12.288zM512 362.668c-12.087 0-22.217 4.096-30.379 12.288-8.192 8.162-12.288 18.291-12.288 30.379s4.096 22.229 12.288 30.421c8.162 8.162 18.291 12.245 30.379 12.245s22.229-4.083 30.421-12.245c8.162-8.192 12.245-18.334 12.245-30.421s-4.083-22.217-12.245-30.379c-8.192-8.192-18.334-12.288-30.421-12.288zM682.667 192.001c-12.087 0-22.217 4.096-30.379 12.288-8.192 8.162-12.288 18.291-12.288 30.379s4.096 22.217 12.288 30.379c8.162 8.192 18.291 12.288 30.379 12.288s22.217-4.096 30.379-12.288c8.192-8.162 12.288-18.291 12.288-30.379s-4.096-22.217-12.288-30.379c-8.162-8.192-18.291-12.288-30.379-12.288zM682.667 362.668c-12.087 0-22.217 4.096-30.379 12.288-8.192 8.162-12.288 18.291-12.288 30.379s4.096 22.229 12.288 30.421c8.162 8.162 18.291 12.245 30.379 12.245s22.217-4.083 30.379-12.245c8.192-8.192 12.288-18.334 12.288-30.421s-4.096-22.217-12.288-30.379c-8.162-8.192-18.291-12.288-30.379-12.288zM213.333 21.334c-23.467 0-43.563 8.35-60.288 25.045-16.697 16.725-25.045 36.821-25.045 60.288v597.333c0 23.467 8.349 43.549 25.045 60.245 16.725 16.725 36.821 25.088 60.288 25.088h42.667v85.333h85.333v-85.333h341.333v85.333h85.333v-85.333h42.667c23.467 0 43.563-8.363 60.288-25.088 16.695-16.697 25.045-36.779 25.045-60.245v-597.333c0-23.467-8.35-43.563-25.045-60.288-16.725-16.695-36.821-25.045-60.288-25.045h-597.333zM213.333 106.668h597.333v426.667h-597.333v-426.667zM213.333 618.668h597.333v85.333h-597.333v-85.333zM213.333 618.668v0z" />
<glyph unicode="&#xe908;" glyph-name="cancel-o" d="M358.4 234.667l153.6 153.6 153.6-153.6 59.733 59.733-153.6 153.6 153.6 153.6-59.733 59.733-153.6-153.6-153.6 153.6-59.733-59.733 153.6-153.6-153.6-153.6 59.733-59.733zM512 21.333c-59.021 0-114.489 11.209-166.4 33.621-51.911 22.387-97.067 52.779-135.467 91.179s-68.793 83.554-91.179 135.467c-22.414 51.913-33.621 107.379-33.621 166.4s11.207 114.489 33.621 166.4c22.386 51.911 52.779 97.067 91.179 135.467s83.555 68.807 135.467 91.221c51.911 22.386 107.379 33.579 166.4 33.579s114.487-11.193 166.4-33.579c51.913-22.414 97.067-52.821 135.467-91.221s68.791-83.555 91.179-135.467c22.413-51.911 33.621-107.379 33.621-166.4s-11.209-114.487-33.621-166.4c-22.387-51.913-52.779-97.067-91.179-135.467s-83.554-68.791-135.467-91.179c-51.913-22.413-107.379-33.621-166.4-33.621zM512 106.667c95.287 0 176 33.067 242.133 99.2s99.2 146.846 99.2 242.133c0 95.289-33.067 176-99.2 242.133s-146.846 99.2-242.133 99.2c-95.289 0-176-33.067-242.133-99.2s-99.2-146.845-99.2-242.133c0-95.287 33.067-176 99.2-242.133s146.845-99.2 242.133-99.2z" />
<glyph unicode="&#xe909;" glyph-name="check-o" d="M452.267 251.733l300.8 300.8-59.733 59.733-241.067-241.067-121.6 121.6-59.733-59.733 181.333-181.333zM512 21.333c-59.021 0-114.489 11.209-166.4 33.621-51.911 22.387-97.067 52.779-135.467 91.179s-68.793 83.554-91.179 135.467c-22.414 51.913-33.621 107.379-33.621 166.4s11.207 114.489 33.621 166.4c22.386 51.911 52.779 97.067 91.179 135.467s83.555 68.807 135.467 91.221c51.911 22.386 107.379 33.579 166.4 33.579s114.487-11.193 166.4-33.579c51.913-22.414 97.067-52.821 135.467-91.221s68.791-83.555 91.179-135.467c22.413-51.911 33.621-107.379 33.621-166.4s-11.209-114.487-33.621-166.4c-22.387-51.913-52.779-97.067-91.179-135.467s-83.554-68.791-135.467-91.179c-51.913-22.413-107.379-33.621-166.4-33.621zM512 106.667c95.287 0 176 33.067 242.133 99.2s99.2 146.846 99.2 242.133c0 95.289-33.067 176-99.2 242.133s-146.846 99.2-242.133 99.2c-95.289 0-176-33.067-242.133-99.2s-99.2-146.845-99.2-242.133c0-95.287 33.067-176 99.2-242.133s146.845-99.2 242.133-99.2z" />
<glyph unicode="&#xe90a;" glyph-name="chevron-left" d="M617.6 190.934l-257.067 257.067 257.067 257.066 45.867-45.867-211.2-211.2 211.2-211.2-45.867-45.867z" />
<glyph unicode="&#xe90b;" glyph-name="chevron-right" d="M406.4 190.933l-45.867 45.867 211.2 211.2-211.2 211.2 45.867 45.867 257.067-257.066-257.067-257.067z" />
<glyph unicode="&#xe90c;" glyph-name="cross" d="M273.067 149.334l-59.733 59.733 238.933 238.933-238.933 238.933 59.733 59.733 238.933-238.933 238.933 238.933 59.733-59.733-238.933-238.933 238.933-238.933-59.733-59.733-238.933 238.933-238.933-238.933z" />
<glyph unicode="&#xe90d;" glyph-name="check" d="M407.467 191.467l-243.2 243.2 60.8 60.8 182.4-182.4 391.467 391.466 60.8-60.8-452.267-452.266z" />
<glyph unicode="&#xe90e;" glyph-name="info" d="M512 234.667c12.087 0 22.229 4.096 30.421 12.288 8.162 8.162 12.245 18.291 12.245 30.379s-4.083 22.229-12.245 30.421c-8.192 8.162-18.334 12.245-30.421 12.245s-22.217-4.083-30.379-12.245c-8.192-8.192-12.288-18.334-12.288-30.421s4.096-22.217 12.288-30.379c8.162-8.192 18.291-12.288 30.379-12.288zM469.333 405.333h85.333v256h-85.333v-256zM512 21.333c-59.021 0-114.489 11.209-166.4 33.621-51.911 22.387-97.067 52.779-135.467 91.179s-68.793 83.554-91.179 135.467c-22.414 51.913-33.621 107.379-33.621 166.4s11.207 114.489 33.621 166.4c22.386 51.911 52.779 97.067 91.179 135.467s83.555 68.807 135.467 91.221c51.911 22.386 107.379 33.579 166.4 33.579s114.487-11.193 166.4-33.579c51.913-22.414 97.067-52.821 135.467-91.221s68.791-83.555 91.179-135.467c22.413-51.911 33.621-107.379 33.621-166.4s-11.209-114.487-33.621-166.4c-22.387-51.913-52.779-97.067-91.179-135.467s-83.554-68.791-135.467-91.179c-51.913-22.413-107.379-33.621-166.4-33.621zM512 106.667c95.287 0 176 33.067 242.133 99.2s99.2 146.846 99.2 242.133c0 95.289-33.067 176-99.2 242.133s-146.846 99.2-242.133 99.2c-95.289 0-176-33.067-242.133-99.2s-99.2-146.845-99.2-242.133c0-95.287 33.067-176 99.2-242.133s146.845-99.2 242.133-99.2z" />
<glyph unicode="&#xe90f;" glyph-name="chevron-up" d="M315.733 290.133l-59.733 59.733 256 256 256-256-59.733-59.733-196.267 196.267-196.267-196.267z" />
<glyph unicode="&#xe910;" glyph-name="chevron-down" d="M512 290.133l-256 256 59.733 59.733 196.267-196.266 196.267 196.266 59.733-59.733-256-256z" />
<glyph unicode="&#xe911;" glyph-name="favorite" d="M512 57.067l-43.733 39.467c-75.378 68.979-137.6 128.533-186.667 178.667s-88.178 94.933-117.333 134.4c-29.155 39.467-49.6 75.2-61.333 107.2s-17.6 64.356-17.6 97.067c0 64 21.511 117.511 64.533 160.533s96.178 64.533 159.467 64.533c40.533 0 78.045-9.6 112.533-28.8s64.533-46.933 90.133-83.2c29.867 38.4 61.513 66.667 94.933 84.8s69.333 27.2 107.733 27.2c63.287 0 116.446-21.511 159.467-64.533s64.533-96.533 64.533-160.533c0-32.711-5.867-65.067-17.6-97.067s-32.179-67.733-61.333-107.2c-29.154-39.467-68.267-84.267-117.333-134.4s-111.287-109.687-186.667-178.667l-43.733-39.467zM512 141.333c71.821 66.133 131.021 122.846 177.6 170.133s83.554 88.713 110.933 124.267c27.379 35.554 46.579 67.2 57.6 94.934s16.533 55.467 16.533 83.2c0 46.933-14.933 85.511-44.8 115.733s-68.267 45.333-115.2 45.333c-36.267 0-70.046-11.2-101.333-33.6s-56.533-53.867-75.733-94.4h-52.267c-18.487 39.822-43.379 71.111-74.667 93.867-31.289 22.755-65.067 34.133-101.333 34.133-46.933 0-85.333-15.111-115.2-45.333s-44.8-68.8-44.8-115.733c0-27.733 5.511-55.645 16.533-83.733s30.222-60.088 57.6-96c27.378-35.913 64.533-77.333 111.467-124.267s105.954-103.113 177.067-168.533z" />
<glyph unicode="&#xe912;" glyph-name="filter-1" d="M469.327 106.666c-12.087 0-22.217 4.096-30.379 12.288-8.192 8.162-12.288 18.291-12.288 30.379v256l-247.467 315.733c-10.667 14.222-12.26 29.155-4.779 44.8 7.452 15.645 20.423 23.467 38.912 23.467h597.333c18.487 0 31.475-7.822 38.955-23.467 7.454-15.645 5.845-30.578-4.821-44.8l-247.467-315.733v-256c0-12.087-4.083-22.217-12.245-30.379-8.192-8.192-18.334-12.288-30.421-12.288h-85.333zM511.994 435.199l211.2 268.8h-422.4l211.2-268.8z" />
<glyph unicode="&#xe913;" glyph-name="help" d="M509.867 192c14.933 0 27.563 5.163 37.888 15.488 10.295 10.295 15.445 22.912 15.445 37.845s-5.15 27.55-15.445 37.845c-10.325 10.325-22.955 15.488-37.888 15.488s-27.563-5.163-37.888-15.488c-10.295-10.295-15.445-22.912-15.445-37.845s5.15-27.55 15.445-37.845c10.325-10.325 22.955-15.488 37.888-15.488zM471.467 356.267h78.933c0 23.467 2.675 41.954 8.021 55.467 5.321 13.513 20.425 32 45.312 55.467 18.487 18.487 33.067 36.096 43.733 52.821 10.667 16.697 16 36.779 16 60.245 0 39.822-14.579 70.4-43.733 91.733s-63.646 32-103.467 32c-40.533 0-73.417-10.667-98.645-32-25.259-21.333-42.866-46.933-52.821-76.8l70.4-27.733c3.554 12.8 11.563 26.667 24.021 41.6 12.429 14.933 31.445 22.4 57.045 22.4 22.754 0 39.821-6.215 51.2-18.645 11.379-12.459 17.067-26.155 17.067-41.088 0-14.222-4.267-27.549-12.8-39.979-8.533-12.459-19.2-24.021-32-34.688-31.287-27.733-50.487-48.713-57.6-62.933s-10.667-40.179-10.667-77.867zM512 21.333c-59.021 0-114.489 11.209-166.4 33.621-51.911 22.387-97.067 52.779-135.467 91.179s-68.793 83.554-91.179 135.467c-22.414 51.913-33.621 107.379-33.621 166.4s11.207 114.489 33.621 166.4c22.386 51.911 52.779 97.067 91.179 135.467s83.555 68.807 135.467 91.221c51.911 22.386 107.379 33.579 166.4 33.579s114.487-11.193 166.4-33.579c51.913-22.414 97.067-52.821 135.467-91.221s68.791-83.555 91.179-135.467c22.413-51.911 33.621-107.379 33.621-166.4s-11.209-114.487-33.621-166.4c-22.387-51.913-52.779-97.067-91.179-135.467s-83.554-68.791-135.467-91.179c-51.913-22.413-107.379-33.621-166.4-33.621zM512 106.667c95.287 0 176 33.067 242.133 99.2s99.2 146.846 99.2 242.133c0 95.289-33.067 176-99.2 242.133s-146.846 99.2-242.133 99.2c-95.289 0-176-33.067-242.133-99.2s-99.2-146.845-99.2-242.133c0-95.287 33.067-176 99.2-242.133s146.845-99.2 242.133-99.2z" />
<glyph unicode="&#xe914;" glyph-name="chevron-left-dd" d="M482.667 192l-256 256 256 256 44.8-44.8-211.2-211.2 211.2-211.2-44.8-44.8zM752.533 192l-256 256 256 256 44.8-44.8-211.2-211.2 211.2-211.2-44.8-44.8z" />
<glyph unicode="&#xe915;" glyph-name="chevron-right-dd" d="M271.467 192l-44.8 44.8 211.2 211.2-211.2 211.2 44.8 44.8 256-256-256-256zM541.333 192l-44.8 44.8 211.2 211.2-211.2 211.2 44.8 44.8 256-256-256-256z" />
<glyph unicode="&#xe916;" glyph-name="email" d="M170.667 106.667c-23.467 0-43.549 8.35-60.245 25.045-16.725 16.725-25.088 36.821-25.088 60.288v512c0 23.467 8.363 43.549 25.088 60.245 16.697 16.725 36.779 25.088 60.245 25.088h682.667c23.467 0 43.563-8.363 60.288-25.088 16.695-16.697 25.045-36.779 25.045-60.245v-512c0-23.467-8.35-43.563-25.045-60.288-16.725-16.695-36.821-25.045-60.288-25.045h-682.667zM512 405.333l-341.333 213.333v-426.667h682.667v426.667l-341.333-213.333zM512 490.667l341.333 213.333h-682.667l341.333-213.333zM170.667 618.667v0z" />
<glyph unicode="&#xe917;" glyph-name="arrow-right" d="M613.818 143.802l-54.393 53.125 212.497 212.498h-665.312v75.89h665.312l-213.756 213.757 54.393 53.125 304.829-304.828-303.571-303.568z" />
<glyph unicode="&#xe918;" glyph-name="menu" d="M153.6 217.599v76.8h716.8v-76.8h-716.8zM153.6 409.599v76.8h716.8v-76.8h-716.8zM153.6 601.6v76.8h716.8v-76.8h-716.8z" />
<glyph unicode="&#xe919;" glyph-name="more" d="M256 362.667c-23.467 0-43.549 8.363-60.245 25.088-16.725 16.695-25.088 36.779-25.088 60.245s8.363 43.563 25.088 60.288c16.697 16.695 36.779 25.045 60.245 25.045s43.549-8.35 60.245-25.045c16.725-16.725 25.088-36.821 25.088-60.288s-8.363-43.55-25.088-60.245c-16.697-16.725-36.779-25.088-60.245-25.088zM512 362.667c-23.467 0-43.55 8.363-60.245 25.088-16.725 16.695-25.088 36.779-25.088 60.245s8.363 43.563 25.088 60.288c16.695 16.695 36.779 25.045 60.245 25.045s43.563-8.35 60.288-25.045c16.695-16.725 25.045-36.821 25.045-60.288s-8.35-43.55-25.045-60.245c-16.725-16.725-36.821-25.088-60.288-25.088zM768 362.667c-23.467 0-43.563 8.363-60.288 25.088-16.695 16.695-25.045 36.779-25.045 60.245s8.35 43.563 25.045 60.288c16.725 16.695 36.821 25.045 60.288 25.045s43.563-8.35 60.288-25.045c16.695-16.725 25.045-36.821 25.045-60.288s-8.35-43.55-25.045-60.245c-16.725-16.725-36.821-25.088-60.288-25.088z" />
<glyph unicode="&#xe91a;" glyph-name="noti" d="M170.668 149.333v85.333h85.333v298.667c0 59.022 17.778 111.474 53.333 157.355 35.555 45.853 81.778 75.89 138.667 90.112v29.867c0 17.778 6.229 32.882 18.688 45.312 12.429 12.459 27.533 18.688 45.312 18.688s32.883-6.229 45.312-18.688c12.459-12.43 18.688-27.534 18.688-45.312v-29.867c56.887-14.222 103.113-44.259 138.667-90.112 35.554-45.881 53.333-98.333 53.333-157.355v-298.667h85.333v-85.333h-682.667zM512.001 21.333c-23.467 0-43.55 8.35-60.245 25.045-16.725 16.725-25.088 36.821-25.088 60.288h170.667c0-23.467-8.35-43.563-25.045-60.288-16.725-16.695-36.821-25.045-60.288-25.045zM341.334 234.667h341.333v298.667c0 46.933-16.713 87.111-50.133 120.533s-73.6 50.133-120.533 50.133c-46.933 0-87.111-16.711-120.533-50.133s-50.133-73.6-50.133-120.533v-298.667z" />
<glyph unicode="&#xe91b;" glyph-name="minus" d="M213.333 416v64h597.333v-64h-597.333z" />
<glyph unicode="&#xe91c;" glyph-name="search" d="M836.266 64l-268.8 268.8c-21.333-17.067-45.867-30.579-73.6-40.533s-57.246-14.933-88.533-14.933c-77.511 0-143.104 26.837-196.779 80.512-53.703 53.705-80.555 119.309-80.555 196.821 0 77.511 26.851 143.118 80.555 196.821 53.675 53.675 119.267 80.512 196.779 80.512s143.117-26.837 196.821-80.512c53.675-53.703 80.512-119.31 80.512-196.821 0-31.287-4.979-60.8-14.933-88.533s-23.467-52.267-40.533-73.6l268.8-268.8-59.733-59.733zM405.332 362.667c53.333 0 98.675 18.658 136.021 55.979 37.321 37.346 55.979 82.688 55.979 136.021s-18.658 98.674-55.979 136.021c-37.346 37.319-82.688 55.979-136.021 55.979s-98.674-18.659-136.021-55.979c-37.319-37.347-55.979-82.688-55.979-136.021s18.659-98.675 55.979-136.021c37.347-37.321 82.688-55.979 136.021-55.979z" />
<glyph unicode="&#xe91d;" glyph-name="share" d="M768 21.333c-35.554 0-65.779 12.446-90.667 37.333s-37.333 55.113-37.333 90.667c0 4.979 0.354 10.142 1.067 15.488 0.713 5.321 1.779 10.112 3.2 14.379l-300.8 174.933c-12.089-10.667-25.6-19.017-40.533-25.045-14.933-6.059-30.578-9.088-46.933-9.088-35.555 0-65.778 12.446-90.667 37.333s-37.333 55.113-37.333 90.667c0 35.554 12.445 65.779 37.333 90.667s55.111 37.333 90.667 37.333c16.355 0 32-3.015 46.933-9.045 14.933-6.059 28.445-14.421 40.533-25.088l300.8 174.933c-1.421 4.267-2.487 9.059-3.2 14.379-0.713 5.347-1.067 10.51-1.067 15.488 0 35.555 12.446 65.778 37.333 90.667s55.113 37.333 90.667 37.333c35.554 0 65.779-12.445 90.667-37.333s37.333-55.111 37.333-90.667c0-35.555-12.446-65.778-37.333-90.667s-55.113-37.333-90.667-37.333c-16.354 0-32 3.029-46.933 9.088-14.933 6.030-28.446 14.379-40.533 25.045l-300.8-174.933c1.422-4.267 2.489-9.058 3.2-14.379 0.711-5.346 1.067-10.509 1.067-15.488s-0.355-10.125-1.067-15.445c-0.711-5.346-1.778-10.155-3.2-14.421l300.8-174.933c12.087 10.667 25.6 19.029 40.533 25.088 14.933 6.029 30.579 9.045 46.933 9.045 35.554 0 65.779-12.446 90.667-37.333s37.333-55.113 37.333-90.667c0-35.554-12.446-65.779-37.333-90.667s-55.113-37.333-90.667-37.333zM768 704c12.087 0 22.217 4.082 30.379 12.245 8.192 8.192 12.288 18.333 12.288 30.421s-4.096 22.229-12.288 30.421c-8.162 8.163-18.291 12.245-30.379 12.245s-22.217-4.082-30.379-12.245c-8.192-8.192-12.288-18.333-12.288-30.421s4.096-22.229 12.288-30.421c8.162-8.163 18.291-12.245 30.379-12.245zM256 405.333c12.089 0 22.229 4.096 30.421 12.288 8.163 8.162 12.245 18.291 12.245 30.379s-4.082 22.229-12.245 30.421c-8.192 8.162-18.333 12.245-30.421 12.245s-22.229-4.083-30.421-12.245c-8.163-8.192-12.245-18.334-12.245-30.421s4.082-22.217 12.245-30.379c8.192-8.192 18.333-12.288 30.421-12.288zM768 106.667c12.087 0 22.217 4.096 30.379 12.288 8.192 8.162 12.288 18.291 12.288 30.379s-4.096 22.217-12.288 30.379c-8.162 8.192-18.291 12.288-30.379 12.288s-22.217-4.096-30.379-12.288c-8.192-8.162-12.288-18.291-12.288-30.379s4.096-22.217 12.288-30.379c8.162-8.192 18.291-12.288 30.379-12.288z" />
<glyph unicode="&#xe91e;" glyph-name="bag" d="M234.667 21.333c-17.067 0-32 6.4-44.8 19.2s-19.2 27.733-19.2 44.8v554.667c0 17.067 6.4 32 19.2 44.8s27.733 19.2 44.8 19.2h117.333v10.667c0 44.8 15.467 82.667 46.4 113.6s68.8 46.4 113.6 46.4c44.8 0 82.667-15.467 113.6-46.4s46.4-68.8 46.4-113.6v-10.667h117.333c17.067 0 32-6.4 44.8-19.2s19.2-27.733 19.2-44.8v-554.667c0-17.067-6.4-32-19.2-44.8s-27.733-19.2-44.8-19.2h-554.667zM416 714.667v-10.667h192v10.667c0 27.022-9.246 49.778-27.733 68.267s-41.246 27.733-68.267 27.733c-27.021 0-49.779-9.245-68.267-27.733s-27.733-41.245-27.733-68.267zM234.667 85.333h554.667v554.667h-117.333v-96c0-9.245-3.021-16.887-9.067-22.933s-13.687-9.067-22.933-9.067c-9.246 0-16.887 3.021-22.933 9.067s-9.067 13.689-9.067 22.933v96h-192v-96c0-9.245-3.022-16.887-9.067-22.933s-13.689-9.067-22.933-9.067c-9.245 0-16.889 3.021-22.933 9.067s-9.067 13.689-9.067 22.933v96h-117.333v-554.667zM234.667 85.333v0z" />
<glyph unicode="&#xe91f;" glyph-name="cart" d="M344.154 21.866c-21.333 0-39.467 7.467-54.4 22.4s-22.4 33.067-22.4 54.4c0 21.333 7.467 39.467 22.4 54.4s33.067 22.4 54.4 22.4c20.623 0 38.578-7.467 53.867-22.4s22.933-33.067 22.933-54.4c0-21.333-7.467-39.467-22.4-54.4s-33.067-22.4-54.4-22.4zM770.821 21.866c-21.333 0-39.467 7.467-54.4 22.4s-22.4 33.067-22.4 54.4c0 21.333 7.467 39.467 22.4 54.4s33.067 22.4 54.4 22.4c20.621 0 38.579-7.467 53.867-22.4s22.933-33.067 22.933-54.4c0-21.333-7.467-39.467-22.4-54.4s-33.067-22.4-54.4-22.4zM288.687 725.866l117.333-243.2h307.2l133.333 243.2h-557.867zM256.687 789.866h628.267c22.754 0 37.154-6.933 43.2-20.8s4.087-29.333-5.867-46.4l-144-259.2c-7.113-12.087-17.067-22.579-29.867-31.467s-26.667-13.333-41.6-13.333h-323.2l-59.733-110.933h523.733v-64h-514.133c-29.867 0-51.377 9.954-64.533 29.867s-12.977 42.313 0.533 67.2l68.267 125.867-162.133 343.467h-83.2v64h124.8l39.467-84.267zM406.021 482.666v0z" />
<glyph unicode="&#xe920;" glyph-name="filter" d="M469.333 64v256h85.333v-85.333h341.333v-85.333h-341.333v-85.333h-85.333zM128 149.333v85.333h256v-85.333h-256zM298.667 320v85.333h-170.667v85.333h170.667v85.333h85.333v-256h-85.333zM469.333 405.333v85.333h426.667v-85.333h-426.667zM640 576v256h85.333v-85.333h170.667v-85.333h-170.667v-85.333h-85.333zM128 661.333v85.333h426.667v-85.333h-426.667z" />
<glyph unicode="&#xe921;" glyph-name="eye" d="M512 266.667c50.487 0 93.333 17.6 128.533 52.8s52.8 78.046 52.8 128.533c0 50.487-17.6 93.333-52.8 128.533s-78.046 52.8-128.533 52.8c-50.487 0-93.333-17.6-128.533-52.8s-52.8-78.046-52.8-128.533c0-50.487 17.6-93.333 52.8-128.533s78.046-52.8 128.533-52.8zM512 328.534c-33.421 0-61.687 11.554-84.8 34.667-23.111 23.113-34.667 51.379-34.667 84.8s11.555 61.687 34.667 84.8c23.113 23.111 51.379 34.667 84.8 34.667s61.687-11.555 84.8-34.667c23.113-23.113 34.667-51.379 34.667-84.8s-11.554-61.687-34.667-84.8c-23.113-23.113-51.379-34.667-84.8-34.667zM512 128c-103.822 0-197.689 29.513-281.6 88.533s-146.489 136.179-187.733 231.467c41.245 95.289 103.822 172.445 187.733 231.467s177.778 88.533 281.6 88.533c103.821 0 197.687-29.511 281.6-88.533s146.487-136.178 187.733-231.467c-41.246-95.287-103.821-172.446-187.733-231.467s-177.779-88.533-281.6-88.533zM512 192c86.046 0 165.154 23.287 237.333 69.867s127.113 108.621 164.8 186.133c-37.687 77.511-92.621 139.555-164.8 186.133s-151.287 69.867-237.333 69.867c-86.045 0-165.155-23.289-237.333-69.867s-127.467-108.622-165.867-186.133c38.4-77.513 93.689-139.554 165.867-186.133s151.289-69.867 237.333-69.867z" />
<glyph unicode="&#xe922;" glyph-name="eye-off" d="M686.933 422.399l-61.867 61.867c6.4 33.421-3.2 64.713-28.8 93.867-25.6 29.156-58.667 40.533-99.2 34.133l-61.867 61.867c12.087 5.689 24.35 9.956 36.779 12.8 12.459 2.845 25.801 4.267 40.021 4.267 53.333 0 98.675-18.659 136.021-55.979 37.321-37.347 55.979-82.688 55.979-136.022 0-14.221-1.421-27.563-4.267-40.021-2.846-12.429-7.113-24.691-12.8-36.779zM823.467 287.999l-61.867 59.733c27.021 20.621 51.029 43.209 72.021 67.755 20.962 24.521 38.912 52.425 53.845 83.712-35.554 71.823-86.583 128.896-153.088 171.222-66.475 42.297-140.599 63.445-222.379 63.445-20.621 0-40.887-1.422-60.8-4.267s-39.467-7.111-58.667-12.8l-66.133 66.133c29.155 12.089 59.022 21.163 89.6 27.221 30.579 6.031 62.579 9.045 96 9.045 107.379 0 203.021-29.681 286.933-89.045 83.913-59.392 144.713-136.377 182.4-230.955-16.354-41.954-37.858-80.896-64.512-116.821-26.679-35.895-57.801-67.358-93.355-94.379zM844.8 25.599l-179.2 177.067c-24.887-7.821-49.95-13.696-75.179-17.621-25.259-3.895-51.401-5.845-78.421-5.845-107.378 0-203.022 29.683-286.933 89.045-83.911 59.392-144.711 136.375-182.4 230.955 14.933 37.687 33.778 72.719 56.533 105.088 22.755 32.341 48.711 61.312 77.867 86.912l-117.333 119.467 59.733 59.733 785.067-785.067-59.733-59.733zM236.8 631.466c-20.622-18.489-39.467-38.755-56.533-60.8s-31.645-45.867-43.733-71.467c35.555-71.821 86.571-128.883 153.045-171.179 66.503-42.325 140.642-63.488 222.421-63.488 14.221 0 28.087 0.883 41.6 2.645 13.513 1.792 27.379 3.755 41.6 5.888l-38.4 40.533c-7.821-2.133-15.287-3.725-22.4-4.779-7.113-1.079-14.579-1.621-22.4-1.621-53.333 0-98.674 18.658-136.021 55.979-37.319 37.346-55.979 82.688-55.979 136.021 0 7.821 0.526 15.287 1.579 22.4 1.081 7.113 2.688 14.579 4.821 22.4l-89.6 87.467z" />
<glyph unicode="&#xe923;" glyph-name="warning" d="M42.667 42.667l469.333 810.667 469.333-810.667h-938.667zM469.333 298.667h85.333v213.333h-85.333v-213.333zM512 170.667c12.087 0 22.229 4.096 30.421 12.288 8.162 8.162 12.245 18.291 12.245 30.379s-4.083 22.217-12.245 30.379c-8.192 8.192-18.334 12.288-30.421 12.288s-22.217-4.096-30.379-12.288c-8.192-8.162-12.288-18.291-12.288-30.379s4.096-22.217 12.288-30.379c8.162-8.192 18.291-12.288 30.379-12.288zM189.867 128h644.267l-322.133 554.667-322.133-554.667z" />
<glyph unicode="&#xe924;" glyph-name="arrow-left" d="M410.181 143.803l54.393 53.125-212.497 212.498h665.312v75.89h-665.312l213.756 213.757-54.393 53.125-304.829-304.828 303.571-303.568z" />
</font>
</defs>
</svg>
